<svg xmlns="http://www.w3.org/2000/svg" data-name="Layer 1" width="793" height="551.73152" viewBox="0 0 793 551.73152" xmlns:xlink="http://www.w3.org/1999/xlink"><ellipse cx="158" cy="539.73152" rx="158" ry="12" fill="#e6e6e6"/><path d="M324.27227,296.55377c27.49676-11.6953,61.74442-4.28528,95.19331.85757.31124-6.228,4.08385-13.80782.132-18.15284-4.80115-5.2788-4.35917-10.82529-1.47008-16.40375,7.38788-14.265-3.1969-29.44375-13.88428-42.0647a23.66937,23.66937,0,0,0-19.75537-8.29179l-19.7975,1.41411A23.70939,23.70939,0,0,0,343.635,230.85851v0c-4.72724,6.42917-7.25736,12.84055-5.66438,19.21854-7.08065,4.83882-8.27029,10.67977-5.08851,17.2644,2.698,4.14592,2.66928,8.18161-.12275,12.1056a55.89079,55.89079,0,0,0-8.31011,16.5061Z" transform="translate(-203.5 -174.13424)" fill="#2f2e41"/><path d="M977.70889,651.09727H417.29111A18.79111,18.79111,0,0,1,398.5,632.30616V304.32656A18.79111,18.79111,0,0,1,417.29111,285.5356H977.70889A18.79111,18.79111,0,0,1,996.5,304.32656V632.30616A18.79111,18.79111,0,0,1,977.70889,651.09727Z" transform="translate(-203.5 -174.13424)" fill="#f2f2f2"/><path d="M996.5,304.32656V632.30616a18.79111,18.79111,0,0,1-18.79111,18.79111H417.29111A18.79111,18.79111,0,0,1,398.5,632.30616V304.32656a18.79111,18.79111,0,0,1,18.79111-18.79111H977.70889A18.79111,18.79111,0,0,1,996.5,304.32656Z" transform="translate(-203.5 -174.13424)" fill="#e6e6e6"/><path d="M973.2768,609.33152H428.77316a14.73039,14.73039,0,0,1-14.73039-14.73039V328.36311a14.73039,14.73039,0,0,1,14.73039-14.73039H973.2768a14.73039,14.73039,0,0,1,14.73039,14.73039V594.60113A14.73039,14.73039,0,0,1,973.2768,609.33152Z" transform="translate(-203.5 -174.13424)" fill="#fff"/><path d="M584.64758,222.11816a6.41621,6.41621,0,0,1,6.1831,7.03174l13.3431,66.69279a6.41621,6.41621,0,0,1-5.05206,7.543l-34.4862,6.8872a6.41621,6.41621,0,0,1-7.543-5.05206l-13.3431-66.69279a6.41621,6.41621,0,0,1,5.05206-7.543l34.4862-6.8872Z" transform="translate(-203.5 -174.13424)" fill="#4a63e7"/><path d="M491.45658,304.79771l43.43868,91.56422a14.46223,14.46223,0,0,1-7.54462,19.8853l-47.44946,22.63035a14.46227,14.46227,0,0,1-19.88531-7.54465L416.57757,339.7724a14.46221,14.46221,0,0,1,7.54465-19.88529l47.44944-22.63035A14.4622,14.4622,0,0,1,491.45658,304.79771Z" transform="translate(-203.5 -174.13424)" fill="#4a63e7"/><polygon points="326.603 190.132 385.128 225.531 425.301 180.44 368.59 138.612 326.603 190.132" fill="#4a63e7"/><circle cx="386.69415" cy="470.59683" r="24.40508" fill="#f2f2f2"/><path d="M543.25653,435.76472v24.06047a4.25928,4.25928,0,0,1-4.25489,4.25566H536.206a4.25288,4.25288,0,0,1-4.25051-4.234l-.00568-24.0756a4.25341,4.25341,0,0,1,4.2501-4.27245h2.82677A4.25778,4.25778,0,0,1,543.25653,435.76472Z" transform="translate(-203.5 -174.13424)" fill="#f2f2f2"/><path d="M652.69957,475.71056v24.06047a4.25928,4.25928,0,0,1-4.25489,4.25566h-2.79146a4.25288,4.25288,0,0,1-4.25051-4.234l-.00568-24.0756a4.25341,4.25341,0,0,1,4.2501-4.27245h2.82677A4.25778,4.25778,0,0,1,652.69957,475.71056Z" transform="translate(-203.5 -174.13424)" fill="#f2f2f2"/><path d="M648.15106,458.13857v-24.06a4.25342,4.25342,0,0,1,4.25-4.25h2.83a4.2531,4.2531,0,0,1,4.25,4.25v24.06a4.25342,4.25342,0,0,1-4.25,4.25h-2.83A4.25342,4.25342,0,0,1,648.15106,458.13857Z" transform="translate(-203.5 -174.13424)" fill="#f2f2f2"/><path d="M684.15107,433.8286v59.93a4.25342,4.25342,0,0,1-4.25,4.25h-2.83a4.2531,4.2531,0,0,1-4.25-4.25v-59.93a4.25342,4.25342,0,0,1,4.25-4.25h2.83A4.2531,4.2531,0,0,1,684.15107,433.8286Z" transform="translate(-203.5 -174.13424)" fill="#f2f2f2"/><path d="M573.09936,563.70031a4.25288,4.25288,0,0,1-4.25051-4.234l-.00567-24.0756a4.25341,4.25341,0,0,1,4.2501-4.27245h2.82677a4.25778,4.25778,0,0,1,4.25489,4.25481v24.06047a4.25928,4.25928,0,0,1-4.25489,4.25566Z" transform="translate(-203.5 -174.13424)" fill="#6c63ff"/><path d="M690.09936,563.70031a4.25288,4.25288,0,0,1-4.25051-4.234l-.00567-24.0756a4.25341,4.25341,0,0,1,4.2501-4.27245h2.82677a4.25778,4.25778,0,0,1,4.25489,4.25481v24.06047a4.25928,4.25928,0,0,1-4.25489,4.25566Z" transform="translate(-203.5 -174.13424)" fill="#6c63ff"/><path d="M573.10474,527.52948v24.06a4.25342,4.25342,0,0,1-4.25,4.25h-2.83a4.2531,4.2531,0,0,1-4.25-4.25v-24.06a4.25342,4.25342,0,0,1,4.25-4.25h2.83A4.2531,4.2531,0,0,1,573.10474,527.52948Z" transform="translate(-203.5 -174.13424)" fill="#6c63ff"/><path d="M655.15107,527.8286v59.93a4.25342,4.25342,0,0,1-4.25,4.25h-2.83a4.2531,4.2531,0,0,1-4.25-4.25v-59.93a4.25342,4.25342,0,0,1,4.25-4.25h2.83A4.2531,4.2531,0,0,1,655.15107,527.8286Z" transform="translate(-203.5 -174.13424)" fill="#6c63ff"/><path d="M552.156,522.93948c-10.61712,0-19.25392-8.87294-19.17856-19.89494.16868-24.84249,5.37845-43.69757,15.03181-56.22681,11.91549-15.50384,29.93866-21.20148,42.42628-21.03223,1.94429.02746,3.91451.1644,5.95088.42616-15.73606,6.04757-28.86411,17.98208-38.46578,34.92741-10.26386,18.06915-15.41957,39.80802-15.21424,64.48724A19.18754,19.18754,0,0,1,552.156,522.93948Z" transform="translate(-203.5 -174.13424)" fill="#4a63e7"/><path d="M503.90065,575.25762c0,.86014.30136,1.55992.84414,1.89965a1.79156,1.79156,0,0,0,1.10413.28435H556.121a1.79154,1.79154,0,0,0,1.10412-.28435c.54279-.33973.84415-1.0395.84415-1.89965,0-.87256-.3077-1.58842-.8509-1.92795a1.79463,1.79463,0,0,0-1.09737-.27524H505.8329a1.79462,1.79462,0,0,0-1.09737.27524C504.20835,573.6692,503.90065,574.38506,503.90065,575.25762Z" transform="translate(-203.5 -174.13424)" fill="#f2f2f2"/></svg>
